<svg width="629" height="159" viewBox="0 0 629 159" fill="none" xmlns="http://www.w3.org/2000/svg">
<path fill-rule="evenodd" clip-rule="evenodd" d="M81 12.9612C84.5899 12.9612 87.5 15.8714 87.5 19.4612V34.6026C90.6172 33.8179 93.6016 32.3949 96.2439 30.329L102.694 25.2857C118.322 13.0673 141.273 18.826 149.281 36.9747C158.157 57.0909 143.426 79.6921 121.439 79.6921H87.5V125.701C87.5 129.29 84.5899 132.201 81 132.201C77.4102 132.201 74.5 129.29 74.5 125.701V79.6921H16.5924C17.0766 80.7101 17.6214 81.707 18.2266 82.6778L59.3057 148.561C61.2051 151.607 60.2754 155.616 57.2292 157.516C54.183 159.415 50.1738 158.485 48.2744 155.439L7.19531 89.556C-1.28378 75.9571 -1.48562 58.7685 6.67179 44.9742L10.018 39.3158C21.7584 19.4627 48.6092 15.1251 66.2306 29.7711C68.7226 31.8423 71.5406 33.3368 74.5 34.2505V19.4612C74.5 15.8714 77.4102 12.9612 81 12.9612ZM74.5 47.6347C68.5402 46.4696 62.8174 43.8382 57.9211 39.7687C46.3376 30.1411 28.7977 33.0986 21.2078 45.933L17.8616 51.5915C15.1045 56.2538 13.7169 61.4722 13.6922 66.6921H74.5V47.6347ZM87.5 66.6921H121.439C134.034 66.6921 142.472 53.7456 137.388 42.2227C132.801 31.8267 119.653 28.5279 110.702 35.5269L104.251 40.5703C99.2384 44.4896 93.4615 46.9114 87.5 47.8636V66.6921Z" fill="url(#paint0_linear_282_63)"/>
<path d="M109.949 10.8821C109.949 16.7278 105.211 21.4666 99.3649 21.4666C93.5192 21.4666 88.7803 16.7278 88.7803 10.8821C88.7803 5.03636 93.5192 0.297485 99.3649 0.297485C105.211 0.297485 109.949 5.03636 109.949 10.8821Z" fill="#C5ED54"/>
<path d="M598.173 151.944V132.936C594.461 132.168 591.293 130.76 588.669 128.712C586.109 126.664 584.125 124.168 582.717 121.224C581.373 118.216 580.701 115.016 580.701 111.624V83.496H593.853V111.624C593.853 113.608 594.333 115.432 595.293 117.096C596.253 118.696 597.533 119.976 599.133 120.936C600.797 121.896 602.621 122.376 604.605 122.376C606.589 122.376 608.381 121.896 609.981 120.936C611.645 119.976 612.957 118.696 613.917 117.096C614.877 115.432 615.357 113.608 615.357 111.624V83.496H628.509V111.624C628.509 115.016 627.837 118.184 626.493 121.128C625.149 124.008 623.197 126.504 620.637 128.616C618.077 130.664 614.973 132.072 611.325 132.84V151.944H598.173Z" fill="url(#paint1_linear_282_63)"/>
<path d="M551.467 132.456C545.899 132.456 541.035 131.4 536.875 129.288C532.779 127.112 529.579 124.168 527.275 120.456C525.035 116.744 523.915 112.584 523.915 107.976C523.915 102.792 524.971 98.2801 527.083 94.4401C529.195 90.6001 532.075 87.6241 535.723 85.5121C539.371 83.4001 543.499 82.3441 548.107 82.3441C553.611 82.3441 558.059 83.4961 561.451 85.8001C564.907 88.1041 567.435 91.2081 569.035 95.1121C570.635 98.9521 571.435 103.24 571.435 107.976C571.435 108.616 571.403 109.384 571.339 110.28C571.275 111.112 571.179 111.752 571.051 112.2H537.931C538.443 114.184 539.307 115.848 540.523 117.192C541.803 118.536 543.371 119.56 545.227 120.264C547.147 120.904 549.291 121.224 551.659 121.224H565.291V132.456H551.467ZM537.835 103.368H558.283C558.155 102.152 557.931 101.032 557.611 100.008C557.291 98.9201 556.843 97.9601 556.267 97.1281C555.691 96.2961 555.019 95.5921 554.251 95.0161C553.483 94.4401 552.587 93.9921 551.563 93.6721C550.539 93.3521 549.419 93.1921 548.203 93.1921C546.603 93.1921 545.163 93.4801 543.883 94.0561C542.667 94.6321 541.643 95.4001 540.811 96.3601C539.979 97.3201 539.307 98.4081 538.795 99.6241C538.347 100.84 538.027 102.088 537.835 103.368Z" fill="url(#paint2_linear_282_63)"/>
<path d="M505.63 132.456C501.278 132.456 497.854 131.208 495.358 128.712C492.926 126.216 491.71 122.824 491.71 118.536V71.2081H504.862V118.152C504.862 118.984 505.15 119.72 505.726 120.36C506.366 120.936 507.102 121.224 507.934 121.224H518.59V132.456H505.63ZM483.358 94.7281V83.4961H518.59V94.7281H483.358Z" fill="url(#paint3_linear_282_63)"/>
<path d="M446.716 133.608C442.236 133.608 438.332 132.456 435.004 130.152C431.676 127.848 429.084 124.776 427.228 120.936C425.436 117.032 424.54 112.744 424.54 108.072C424.54 103.272 425.564 98.9201 427.612 95.0161C429.724 91.1121 432.732 88.0401 436.636 85.8001C440.54 83.4961 445.212 82.3441 450.652 82.3441C456.156 82.3441 460.796 83.4961 464.572 85.8001C468.348 88.1041 471.228 91.2081 473.212 95.1121C475.196 99.0161 476.188 103.336 476.188 108.072V132.456H463.036V124.296H462.844C461.884 126.024 460.668 127.592 459.196 129C457.788 130.408 456.06 131.528 454.012 132.36C451.964 133.192 449.532 133.608 446.716 133.608ZM450.46 122.376C453.02 122.376 455.228 121.736 457.084 120.456C458.94 119.176 460.348 117.448 461.308 115.272C462.332 113.032 462.844 110.568 462.844 107.88C462.844 105.192 462.332 102.792 461.308 100.68C460.348 98.5041 458.94 96.7761 457.084 95.4961C455.228 94.2161 453.02 93.576 450.46 93.576C447.836 93.576 445.564 94.2161 443.644 95.4961C441.788 96.7761 440.348 98.5041 439.324 100.68C438.364 102.792 437.884 105.192 437.884 107.88C437.884 110.568 438.364 113.032 439.324 115.272C440.348 117.448 441.788 119.176 443.644 120.456C445.564 121.736 447.836 122.376 450.46 122.376Z" fill="url(#paint4_linear_282_63)"/>
<path d="M369.055 133.512C365.279 133.512 361.855 132.648 358.783 130.92C355.775 129.192 353.407 126.824 351.679 123.816C349.951 120.808 349.087 117.352 349.087 113.448V82.5361C349.087 81.3841 348.799 80.3281 348.223 79.3681C347.647 78.4081 346.879 77.6401 345.919 77.0641C344.959 76.4881 343.903 76.2001 342.751 76.2001C341.599 76.2001 340.543 76.4881 339.583 77.0641C338.687 77.6401 337.951 78.4081 337.375 79.3681C336.799 80.3281 336.511 81.3841 336.511 82.5361V132.456H322.783V84.1681C322.783 80.4561 323.615 77.0961 325.279 74.0881C326.943 71.0801 329.279 68.6801 332.287 66.8881C335.295 65.0321 338.783 64.1041 342.751 64.1041C346.783 64.1041 350.303 65.0321 353.311 66.8881C356.319 68.6801 358.655 71.0801 360.319 74.0881C361.983 77.0961 362.815 80.4561 362.815 84.1681V115.08C362.815 116.232 363.103 117.288 363.679 118.248C364.255 119.208 364.991 119.976 365.887 120.552C366.847 121.128 367.903 121.416 369.055 121.416C370.207 121.416 371.263 121.128 372.223 120.552C373.183 119.976 373.951 119.208 374.527 118.248C375.103 117.288 375.391 116.232 375.391 115.08V84.1681C375.391 80.4561 376.223 77.0961 377.887 74.0881C379.551 71.0801 381.887 68.6801 384.895 66.8881C387.967 65.0321 391.487 64.1041 395.455 64.1041C399.487 64.1041 402.975 65.0321 405.919 66.8881C408.927 68.6801 411.263 71.0801 412.927 74.0881C414.591 77.0961 415.423 80.4561 415.423 84.1681V132.456H401.695V82.5361C401.695 81.3841 401.407 80.3281 400.831 79.3681C400.319 78.4081 399.583 77.6401 398.623 77.0641C397.663 76.4881 396.607 76.2001 395.455 76.2001C394.303 76.2001 393.247 76.4881 392.287 77.0641C391.327 77.6401 390.559 78.4081 389.983 79.3681C389.407 80.3281 389.119 81.3841 389.119 82.5361V113.448C389.119 117.352 388.223 120.808 386.431 123.816C384.703 126.824 382.335 129.192 379.327 130.92C376.319 132.648 372.895 133.512 369.055 133.512Z" fill="url(#paint5_linear_282_63)"/>
<path d="M246.674 132.456V121.224H270.578C271.346 121.224 272.018 121.064 272.594 120.744C273.234 120.424 273.714 119.976 274.034 119.4C274.418 118.824 274.61 118.184 274.61 117.48C274.61 116.712 274.418 116.04 274.034 115.464C273.714 114.888 273.234 114.44 272.594 114.12C272.018 113.736 271.346 113.544 270.578 113.544H261.362C258.226 113.544 255.378 113.064 252.818 112.104C250.322 111.08 248.306 109.48 246.77 107.304C245.298 105.064 244.562 102.152 244.562 98.568C244.562 95.816 245.234 93.32 246.578 91.08C247.986 88.776 249.842 86.952 252.146 85.608C254.514 84.2 257.106 83.496 259.922 83.496H282.866V94.728H261.17C260.21 94.728 259.346 95.048 258.578 95.688C257.874 96.328 257.522 97.16 257.522 98.184C257.522 99.208 257.874 100.072 258.578 100.776C259.282 101.416 260.146 101.736 261.17 101.736H270.386C273.906 101.736 276.946 102.28 279.506 103.368C282.066 104.392 284.05 106.024 285.458 108.264C286.866 110.504 287.57 113.448 287.57 117.096C287.57 119.912 286.866 122.504 285.458 124.872C284.05 127.176 282.162 129.032 279.794 130.44C277.426 131.784 274.77 132.456 271.826 132.456H246.674Z" fill="url(#paint6_linear_282_63)"/>
<path d="M210.105 133.608C205.113 133.608 200.825 132.616 197.241 130.632C193.657 128.648 190.905 125.992 188.985 122.664C187.129 119.336 186.201 115.656 186.201 111.624V83.496H199.353V111.624C199.353 113.608 199.833 115.432 200.793 117.096C201.753 118.696 203.033 119.976 204.633 120.936C206.297 121.896 208.121 122.376 210.105 122.376C212.089 122.376 213.881 121.896 215.481 120.936C217.145 119.976 218.457 118.696 219.417 117.096C220.377 115.432 220.857 113.608 220.857 111.624V83.496H234.009V111.624C234.009 115.656 233.049 119.336 231.129 122.664C229.273 125.992 226.553 128.648 222.969 130.632C219.449 132.616 215.161 133.608 210.105 133.608Z" fill="url(#paint7_linear_282_63)"/>
<path d="M160.607 132.456V62.376H173.759V132.456H160.607Z" fill="url(#paint8_linear_282_63)"/>
<defs>
<linearGradient id="paint0_linear_282_63" x1="0.691895" y1="12.9612" x2="159.251" y2="126.295" gradientUnits="userSpaceOnUse">
<stop stop-color="#FBD85C"/>
<stop offset="1" stop-color="#DB2A7F"/>
</linearGradient>
<linearGradient id="paint1_linear_282_63" x1="580.701" y1="83.496" x2="642.236" y2="113.064" gradientUnits="userSpaceOnUse">
<stop stop-color="#FBD85C"/>
<stop offset="1" stop-color="#DB2A7F"/>
</linearGradient>
<linearGradient id="paint2_linear_282_63" x1="523.915" y1="82.3441" x2="576.725" y2="116.796" gradientUnits="userSpaceOnUse">
<stop stop-color="#FBD85C"/>
<stop offset="1" stop-color="#DB2A7F"/>
</linearGradient>
<linearGradient id="paint3_linear_282_63" x1="483.358" y1="71.2081" x2="531.619" y2="90.3064" gradientUnits="userSpaceOnUse">
<stop stop-color="#FBD85C"/>
<stop offset="1" stop-color="#DB2A7F"/>
</linearGradient>
<linearGradient id="paint4_linear_282_63" x1="424.54" y1="82.3441" x2="479.813" y2="120.654" gradientUnits="userSpaceOnUse">
<stop stop-color="#FBD85C"/>
<stop offset="1" stop-color="#DB2A7F"/>
</linearGradient>
<linearGradient id="paint5_linear_282_63" x1="322.783" y1="64.1041" x2="402.414" y2="137.223" gradientUnits="userSpaceOnUse">
<stop stop-color="#FBD85C"/>
<stop offset="1" stop-color="#DB2A7F"/>
</linearGradient>
<linearGradient id="paint6_linear_282_63" x1="244.562" y1="83.496" x2="294.472" y2="113.658" gradientUnits="userSpaceOnUse">
<stop stop-color="#FBD85C"/>
<stop offset="1" stop-color="#DB2A7F"/>
</linearGradient>
<linearGradient id="paint7_linear_282_63" x1="186.201" y1="83.496" x2="239.139" y2="118.241" gradientUnits="userSpaceOnUse">
<stop stop-color="#FBD85C"/>
<stop offset="1" stop-color="#DB2A7F"/>
</linearGradient>
<linearGradient id="paint8_linear_282_63" x1="160.607" y1="62.376" x2="181.102" y2="65.0222" gradientUnits="userSpaceOnUse">
<stop stop-color="#FBD85C"/>
<stop offset="1" stop-color="#DB2A7F"/>
</linearGradient>
</defs>
</svg>
